<svg class="walletconnect-qrcode__image" xmlns="http://www.w3.org/2000/svg" viewBox="0 0 53 53" shape-rendering="crispEdges"><path fill="#ffffff" d="M0 0h53v53H0z"></path><path stroke="#000000" d="M0 0.5h7m2 0h2m8 0h3m1 0h1m1 0h2m1 0h1m1 0h1m1 0h1m2 0h1m6 0h1m3 0h7M0 1.5h1m5 0h1m3 0h2m2 0h3m1 0h4m4 0h2m3 0h1m1 0h2m1 0h1m4 0h3m2 0h1m5 0h1M0 2.5h1m1 0h3m1 0h1m1 0h1m2 0h5m7 0h1m1 0h8m3 0h2m2 0h1m2 0h1m2 0h1m1 0h3m1 0h1M0 3.5h1m1 0h3m1 0h1m1 0h2m1 0h2m2 0h1m2 0h2m1 0h1m5 0h1m2 0h1m4 0h1m1 0h1m1 0h1m1 0h2m1 0h1m1 0h1m1 0h3m1 0h1M0 4.5h1m1 0h3m1 0h1m1 0h1m3 0h3m5 0h1m1 0h10m1 0h1m3 0h1m2 0h3m3 0h1m1 0h3m1 0h1M0 5.5h1m5 0h1m1 0h3m2 0h3m1 0h1m6 0h1m3 0h1m5 0h2m2 0h1m3 0h1m3 0h1m5 0h1M0 6.5h7m1 0h1m1 0h1m1 0h1m1 0h1m1 0h1m1 0h1m1 0h1m1 0h1m1 0h1m1 0h1m1 0h1m1 0h1m1 0h1m1 0h1m1 0h1m1 0h1m1 0h1m1 0h1m1 0h1m1 0h7M8 7.5h1m3 0h1m2 0h1m1 0h1m3 0h1m2 0h1m3 0h1m1 0h2m1 0h3m2 0h3m1 0h1M0 8.5h1m1 0h5m4 0h2m4 0h1m1 0h2m2 0h8m3 0h1m1 0h1m2 0h1m3 0h2m1 0h5M1 9.5h3m1 0h1m3 0h3m4 0h1m3 0h3m1 0h2m2 0h1m1 0h2m4 0h2m1 0h1m2 0h1m6 0h1m1 0h2M4 10.5h1m1 0h1m1 0h1m3 0h2m1 0h2m2 0h1m3 0h1m1 0h1m1 0h1m1 0h1m3 0h6m2 0h1m1 0h1m1 0h2m1 0h1M2 11.5h3m2 0h3m1 0h2m1 0h3m4 0h1m2 0h1m4 0h1m1 0h2m4 0h4m2 0h1m1 0h1m1 0h1m4 0h1M1 12.5h2m2 0h4m2 0h2m2 0h1m1 0h1m3 0h1m3 0h2m7 0h3m1 0h1m2 0h2m1 0h1m3 0h3M1 13.5h3m1 0h1m5 0h2m4 0h2m1 0h1m1 0h8m3 0h1m3 0h1m3 0h3m1 0h1m1 0h1m1 0h1m1 0h2M1 14.5h1m3 0h3m1 0h2m1 0h5m1 0h3m5 0h2m2 0h2m2 0h3m1 0h1m1 0h1m2 0h2m1 0h5M0 15.5h4m1 0h1m1 0h1m1 0h2m2 0h1m1 0h2m1 0h1m1 0h6m3 0h2m1 0h2m4 0h1m1 0h2m1 0h2m4 0h1m1 0h2M0 16.5h12m2 0h3m1 0h1m2 0h1m1 0h2m1 0h4m1 0h1m4 0h1m2 0h1m4 0h1m2 0h2m1 0h2M0 17.5h2m1 0h1m1 0h1m2 0h2m2 0h1m1 0h1m2 0h3m2 0h1m4 0h4m2 0h1m1 0h1m1 0h1m1 0h5m6 0h1m1 0h1M0 18.5h1m1 0h1m2 0h6m1 0h1m1 0h1m2 0h1m1 0h3m1 0h1m2 0h1m5 0h1m3 0h1m1 0h1m5 0h1m1 0h4m1 0h1M0 19.5h5m4 0h1m4 0h1m1 0h1m3 0h1m3 0h1m4 0h2m6 0h4m1 0h1m8 0h2M1 20.5h8m2 0h5m1 0h1m1 0h3m1 0h5m1 0h3m1 0h1m1 0h2m1 0h1m3 0h4m1 0h4M0 21.5h2m1 0h1m1 0h1m2 0h1m1 0h1m1 0h2m2 0h5m4 0h1m4 0h1m1 0h2m2 0h3m1 0h1m1 0h1m5 0h1m3 0h1M0 22.5h2m1 0h1m1 0h5m1 0h1m1 0h1m1 0h1m2 0h1m1 0h2m1 0h2m1 0h2m1 0h1m4 0h3m2 0h1m1 0h1m3 0h3m1 0h2M0 23.5h1m2 0h1m3 0h1m1 0h3m3 0h1m2 0h1m2 0h2m1 0h2m3 0h5m1 0h3m2 0h1m1 0h2m1 0h3m3 0h2M0 24.5h1m3 0h6m1 0h1m2 0h3m1 0h1m1 0h2m1 0h8m3 0h1m1 0h1m1 0h2m1 0h2m1 0h7m1 0h1M0 25.5h1m3 0h1m3 0h1m1 0h1m1 0h1m1 0h2m1 0h1m1 0h1m2 0h1m1 0h1m3 0h1m1 0h2m3 0h2m2 0h6m3 0h1m2 0h2M0 26.5h3m1 0h1m1 0h1m1 0h2m2 0h6m1 0h2m3 0h1m1 0h1m1 0h2m2 0h2m2 0h4m3 0h2m1 0h1m1 0h3M0 27.5h1m1 0h1m1 0h1m3 0h1m1 0h1m1 0h1m3 0h3m3 0h1m1 0h1m3 0h3m6 0h1m2 0h1m3 0h1m3 0h1M0 28.5h1m2 0h6m1 0h1m1 0h2m2 0h1m1 0h1m1 0h1m3 0h5m2 0h2m2 0h2m5 0h1m1 0h9M0 29.5h3m2 0h1m1 0h5m2 0h2m1 0h1m1 0h1m1 0h3m2 0h2m2 0h1m1 0h1m2 0h1m1 0h1m2 0h1m1 0h2m1 0h1m2 0h2m2 0h1M0 30.5h7m1 0h2m1 0h1m1 0h1m1 0h3m3 0h1m6 0h2m1 0h2m1 0h1m1 0h4m1 0h1m3 0h1m2 0h1M1 31.5h1m5 0h1m3 0h1m3 0h1m1 0h1m2 0h2m1 0h1m1 0h1m1 0h1m2 0h1m1 0h3m2 0h2m1 0h5m1 0h1m1 0h2m1 0h2M0 32.5h4m2 0h1m1 0h1m4 0h3m2 0h2m9 0h3m1 0h1m2 0h4m2 0h1m4 0h1m2 0h1m1 0h1M3 33.5h1m1 0h1m1 0h1m1 0h1m4 0h3m2 0h7m1 0h1m2 0h4m1 0h1m1 0h1m3 0h4m3 0h1m2 0h2M1 34.5h1m2 0h1m1 0h1m1 0h1m2 0h1m2 0h1m6 0h1m3 0h1m1 0h4m3 0h5m8 0h3M2 35.5h1m1 0h1m2 0h2m3 0h1m1 0h2m2 0h1m7 0h1m3 0h3m1 0h2m1 0h1m1 0h3m1 0h4m2 0h1m2 0h1M1 36.5h2m1 0h5m6 0h1m1 0h3m1 0h1m2 0h2m2 0h3m2 0h5m6 0h1m1 0h2m2 0h1M2 37.5h4m1 0h1m3 0h3m1 0h1m1 0h2m1 0h1m1 0h2m2 0h2m2 0h2m2 0h1m1 0h1m4 0h3m2 0h1m1 0h1m1 0h3M1 38.5h1m1 0h1m1 0h2m1 0h3m5 0h1m2 0h1m2 0h1m1 0h1m3 0h1m2 0h3m2 0h3m1 0h1m3 0h1m2 0h3M1 39.5h2m4 0h2m7 0h1m2 0h1m1 0h4m1 0h1m3 0h4m1 0h1m3 0h8m2 0h1m1 0h1M4 40.5h1m1 0h1m1 0h1m2 0h3m1 0h3m4 0h1m2 0h1m1 0h2m7 0h2m3 0h1m5 0h1m2 0h1M0 41.5h1m3 0h1m2 0h2m1 0h1m2 0h1m1 0h2m1 0h1m1 0h2m1 0h4m2 0h3m1 0h1m1 0h2m2 0h1m1 0h3m1 0h1m2 0h2m1 0h2M0 42.5h2m1 0h4m3 0h1m1 0h4m3 0h1m1 0h2m1 0h1m3 0h1m1 0h2m1 0h3m1 0h1m6 0h1m2 0h1m1 0h1m1 0h1M1 43.5h2m4 0h1m1 0h1m2 0h4m3 0h3m1 0h1m1 0h3m2 0h4m2 0h1m1 0h1m1 0h1m1 0h2m1 0h2m1 0h1M3 44.5h1m2 0h2m2 0h1m1 0h1m1 0h1m4 0h3m2 0h5m6 0h1m3 0h1m4 0h7M8 45.5h1m2 0h1m1 0h1m1 0h2m1 0h3m1 0h1m1 0h1m3 0h1m1 0h2m1 0h1m6 0h3m1 0h1m3 0h1m1 0h1m1 0h1M0 46.5h7m4 0h2m2 0h3m1 0h3m2 0h1m1 0h1m1 0h2m1 0h5m2 0h2m4 0h1m1 0h1m1 0h1m1 0h2M0 47.5h1m5 0h1m1 0h3m2 0h1m1 0h4m4 0h2m3 0h1m1 0h2m1 0h2m2 0h1m1 0h2m1 0h3m3 0h1M0 48.5h1m1 0h3m1 0h1m1 0h1m1 0h1m1 0h1m1 0h1m5 0h2m1 0h8m4 0h2m4 0h2m1 0h7M0 49.5h1m1 0h3m1 0h1m1 0h2m4 0h2m2 0h1m1 0h1m4 0h1m4 0h2m1 0h1m1 0h1m1 0h1m4 0h1m1 0h2M0 50.5h1m1 0h3m1 0h1m1 0h1m1 0h1m1 0h1m1 0h1m1 0h2m2 0h4m2 0h1m1 0h2m4 0h5m4 0h1m3 0h3m1 0h2M0 51.5h1m5 0h1m4 0h3m1 0h1m4 0h1m2 0h1m3 0h1m1 0h1m2 0h2m5 0h5m1 0h1m2 0h2m1 0h1M0 52.5h7m1 0h1m1 0h6m2 0h1m2 0h2m1 0h1m1 0h1m1 0h1m2 0h1m3 0h2m1 0h1m2 0h1m2 0h1m1 0h2"></path></svg>