<svg width="126px" height="28" viewBox="0 0 226 28" fill="none" xmlns="http://www.w3.org/2000/svg" class="MuiSvgIcon-root name-icon MuiSvgIcon-colorPrimary MuiSvgIcon-fontSizeSmall" focusable="false" aria-hidden="true"><path d="M8.12023 27H15.4618V6.86629H23.3966V1.04494H0.148315V6.86629H8.12023V27ZM31.6936 27H39.0351V1.04494H31.6936V27ZM55.3448 27H62.6864V6.86629H70.6212V1.04494H47.3729V6.86629H55.3448V27ZM97.0438 27H104.682L93.1876 1.04494H85.9573L74.5 27H81.9899L84.0292 21.9573H95.0045L97.0438 27ZM86.1798 16.5438L89.5168 8.2382L92.8539 16.5438H86.1798ZM129.826 1.04494V14.8753L118.369 1.04494H112.325V27H119.518V13.1697L130.976 27H137.02V1.04494H129.826ZM160.849 27.5191C169.154 27.5191 175.272 21.809 175.272 14.0225C175.272 6.23596 169.154 0.525841 160.849 0.525841C152.543 0.525841 146.425 6.23596 146.425 14.0225C146.425 21.809 152.543 27.5191 160.849 27.5191ZM160.849 21.4382C156.918 21.4382 153.841 18.509 153.841 14.0225C153.841 9.53595 156.918 6.60674 160.849 6.60674C164.779 6.60674 167.857 9.53595 167.857 14.0225C167.857 18.509 164.779 21.4382 160.849 21.4382Z" fill="white"></path></svg>