<?xml version="1.0" encoding="utf-8"?>
<!-- Generator: Adobe Illustrator 24.0.0, SVG Export Plug-In . SVG Version: 6.00 Build 0)  -->
<svg version="1.1" id="Capa_1" xmlns="http://www.w3.org/2000/svg" xmlns:xlink="http://www.w3.org/1999/xlink" x="0px" y="0px"
	 viewBox="0 0 841.9 595.3" style="enable-background:new 0 0 841.9 595.3;" xml:space="preserve">
<style type="text/css">
	.st0{fill:#006ECD;}
	.st1{fill:#FEFEFE;}
	.st2{fill:#FCFDFD;}
	.st3{fill:#FCFCFD;}
	.st4{fill:#C9E0F3;}
</style>
<g>
	<path class="st0" d="M204.3,513.8c0-143.6,0-287.3,0-430.9c0-1.6,0.4-2,2-2c143.6,0,287.3,0,430.9,0c0,143.3,0,286.7,0,430
		c0,2.9,0,2.9-2.9,2.9C491,513.8,347.8,513.8,204.3,513.8z M288.4,393.9c-0.2,0.2-0.4,0.4-0.4,0.5c0.2,0,0.4,0.2,0.4,0.2
		c11.9,0,23.6,0,35.5,0c11.2,0,22.3,0,33.5,0c1.6,0,3.1-0.4,4.3-1.4c18.2-18.5,36.5-36.9,55.1-55.1c1.4-1.4,2.2-1.3,3.4,0
		c20,20,40,39.8,59.9,59.8c1.4,1.4,2.5,1.4,3.6-0.2c1.1-1.6,2.7-2.7,4.1-4.1c10.6-10.6,21.1-21.2,31.7-31.7c1.1-1.1,1.1-1.6,0-2.7
		c-6.5-6.3-12.8-12.8-19.3-19.3c-8.3-8.3-16.6-16.4-24.8-24.7c-5.6-5.6-11-11.3-16.6-16.7c-1.1-1.1-0.9-1.4,0-2.3
		c23-23,45.9-45.9,68.8-68.9c8.8-8.8,17.5-17.6,26.3-26.5c0.2-0.2,0.4-0.4,0.5-0.5c-0.2,0-0.4-0.2-0.5-0.2c-25,0-50,0-75.1,0
		c-1.4,0-2.7,0.5-3.6,1.6c-4.1,4.3-8.3,8.6-12.4,13c-14.2,14.8-28.6,29.5-43,44.1c-11.5,11.7-23,23.6-34.4,35.3
		c-11.9,12.2-23.8,24.7-35.6,36.9c-16,16.6-32.2,33.1-48.4,49.7C296.8,385.3,292.7,389.6,288.4,393.9z M388.3,228.5
		c-0.4-0.5-0.9-1.1-1.3-1.6c-9.9-10.1-20-20-29.9-30.1c-1.4-1.4-2.5-1.3-4,0.2c-11.9,11.9-23.6,23.6-35.6,35.5
		c-1.3,1.3-1.6,1.8,0,3.2c10.1,9.9,20,19.8,29.9,29.7c2.5,2.5,2.5,2.5,5.2,0c5-5,10.1-10.1,15.1-15.1c6.5-6.5,12.6-13.1,19.3-19.3
		C387.5,230.3,388.1,229.6,388.3,228.5z"/>
	<path class="st1" d="M204.3,513.8c143.3,0,286.7,0,430,0c2.9,0,2.9,0,2.9-2.9c0-143.3,0-286.7,0-430c0.2,0.2,0.5-0.2,0.4,0.2
		c0,0.5,0,1.1,0,1.8c0,143.1,0,286.2,0,429.5c0,1.6-0.4,2-2,2c-143.1,0-286.4,0-429.5,0C205.7,514.3,204.8,514.7,204.3,513.8z"/>
	<path class="st2" d="M553.7,201c-8.8,8.8-17.5,17.6-26.3,26.5c-22.9,23-45.9,45.9-68.8,68.9c-0.9,0.9-1.3,1.3,0,2.3
		c5.6,5.4,11,11.2,16.6,16.7c8.3,8.3,16.6,16.4,24.8,24.7c6.5,6.5,12.8,13,19.3,19.3c1.1,1.1,1.1,1.6,0,2.7
		c-10.6,10.6-21.1,21.1-31.7,31.7c-1.4,1.4-2.9,2.5-4.1,4.1c-1.1,1.6-2.2,1.6-3.6,0.2c-20-20-40-39.8-59.9-59.8
		c-1.3-1.4-2-1.4-3.4,0c-18.5,18.2-36.9,36.5-55.1,55.1c-1.3,1.3-2.7,1.4-4.3,1.4c-11.2,0-22.3,0-33.5,0c-11.9,0-23.6,0-35.5,0
		c0-0.2,0-0.5,0-0.7c4.3-4.3,8.6-8.8,12.8-13.1c16.2-16.6,32.2-33.1,48.4-49.7c11.9-12.2,23.8-24.7,35.6-36.9
		c11.5-11.9,22.9-23.6,34.4-35.3c14.4-14.8,28.6-29.5,43-44.1c4.1-4.3,8.3-8.6,12.4-13c1.1-1.1,2.2-1.6,3.6-1.6c25,0,50,0,75.1,0
		C553.7,200.4,553.7,200.6,553.7,201z"/>
	<path class="st3" d="M388.3,228.5c-0.2,1.1-0.9,1.6-1.4,2.3c-6.7,6.3-12.8,13-19.3,19.3c-5,5-10.1,10.1-15.1,15.1
		c-2.5,2.5-2.7,2.5-5.2,0c-9.9-9.9-20-19.8-29.9-29.7c-1.4-1.4-1.3-2,0-3.2c11.9-11.7,23.8-23.6,35.6-35.5c1.4-1.4,2.5-1.6,4-0.2
		c9.9,10.1,20,20,29.9,30.1C387.4,227.4,387.9,228,388.3,228.5z"/>
	<path class="st4" d="M553.7,201c0-0.2,0-0.5,0-0.7c0.2,0,0.4,0.2,0.5,0.2C554,200.6,553.9,200.8,553.7,201z"/>
	<path class="st4" d="M288.4,393.9c0,0.2,0,0.5,0,0.7c-0.2,0-0.4-0.2-0.4-0.2C288,394.3,288.2,394.1,288.4,393.9z"/>
</g>
</svg>
